
<svg width="105" height="66" viewBox="0 0 105 66" fill="none" xmlns="http://www.w3.org/2000/svg">
<path d="M23.949 48.4746L56.6135 21.7359M56.6135 21.7359C56.3631 20.084 56.6518 16.6486 57.4978 15.9995C58.5553 15.1882 65.4619 13.3862 64.0494 7.2388C62.9194 2.32085 59.1343 1.55597 57.3887 1.68016C55.0613 1.84573 50.3848 3.12997 50.2064 8.67244M56.6135 21.7359L84.5427 48.7631" stroke="#A9804B" stroke-width="1.44271" stroke-linecap="round"/>
<path d="M96.6804 58.8731C95.507 58.8731 94.6221 58.5461 94.0258 57.8921C93.4487 57.2573 93.1602 56.4686 93.1602 55.5261C93.1602 54.6604 93.3717 53.7467 93.7949 52.7849C94.2374 51.8231 94.8145 50.919 95.5262 50.0726C96.2572 49.2262 97.0555 48.5434 97.9211 48.024C98.7867 47.4854 99.6427 47.2161 100.489 47.2161C100.932 47.2161 101.336 47.3315 101.701 47.5623C102.086 47.7931 102.278 48.2644 102.278 48.9762C102.278 49.7071 102.057 50.3996 101.614 51.0537C101.191 51.6885 100.624 52.2559 99.912 52.7561C99.2195 53.2562 98.4501 53.6698 97.6037 53.9968C96.7765 54.3046 95.9494 54.4969 95.1222 54.5739C95.0838 54.7662 95.0549 54.949 95.0357 55.1221C95.0164 55.2952 95.0068 55.4587 95.0068 55.6126C95.0068 55.9012 95.0357 56.1897 95.0934 56.4783C95.1703 56.7668 95.2954 57.0361 95.4685 57.2862C95.6416 57.517 95.8724 57.6997 96.161 57.8344C96.4688 57.9691 96.8439 58.0364 97.2863 58.0364C98.1135 58.0364 98.931 57.8055 99.7389 57.3439C100.547 56.863 101.297 56.2378 101.99 55.4684C102.682 54.6989 103.269 53.8525 103.75 52.9292L104.096 53.1889C103.577 54.343 102.913 55.3433 102.105 56.1897C101.316 57.0361 100.451 57.6901 99.5081 58.1518C98.5847 58.6327 97.6422 58.8731 96.6804 58.8731ZM95.2665 54.0256C95.7859 53.8525 96.3726 53.6025 97.0266 53.2754C97.6806 52.9292 98.3058 52.5252 98.9021 52.0636C99.5177 51.6019 100.018 51.0921 100.403 50.5343C100.807 49.9764 101.008 49.3897 101.008 48.7742C101.008 48.5626 100.97 48.3991 100.893 48.2837C100.816 48.1683 100.653 48.1105 100.403 48.1105C99.9409 48.1105 99.4504 48.2933 98.931 48.6588C98.4116 49.005 97.9115 49.4667 97.4306 50.0438C96.9497 50.6209 96.5169 51.2556 96.1321 51.9481C95.7474 52.6406 95.4589 53.3331 95.2665 54.0256Z" fill="#A9804B"/>
<path d="M84.8919 59.7106C83.8916 59.7106 83.1414 59.3836 82.6413 58.7296C82.1604 58.0755 81.9199 57.1907 81.9199 56.075C81.9199 55.1132 82.0834 53.9783 82.4104 52.6702C82.7375 51.3621 83.1703 49.9964 83.7089 48.5729C84.2475 47.1302 84.8438 45.726 85.4978 44.3602C86.1711 42.9944 86.8444 41.7633 87.5176 40.6669C88.1909 39.5512 88.8257 38.6663 89.422 38.0123C90.0183 37.339 90.5088 37.0024 90.8936 37.0024C91.2206 37.0024 91.4514 37.2044 91.5861 37.6083C91.74 38.0123 91.8169 38.4162 91.8169 38.8202C91.8169 39.3588 91.7015 40.0128 91.4707 40.7823C91.2398 41.5517 90.9128 42.3789 90.4896 43.2637C90.0664 44.1294 89.5759 44.9854 89.018 45.8318C88.4602 46.6781 87.8543 47.4572 87.2002 48.1689C86.5654 48.8614 85.9114 49.4097 85.2382 49.8136C85.1227 50.0252 84.9496 50.4677 84.7188 51.1409C84.5072 51.795 84.3052 52.5548 84.1128 53.4204C83.9397 54.2668 83.8532 55.0939 83.8532 55.9019C83.8532 56.6905 83.9686 57.335 84.1994 57.8351C84.4495 58.3545 84.8631 58.6142 85.4401 58.6142C85.998 58.6142 86.5751 58.3833 87.1714 57.9217C87.7677 57.4792 88.2486 56.9021 88.6141 56.1904C87.9024 55.8249 87.3734 55.2959 87.0271 54.6034C86.6809 53.8917 86.5077 53.18 86.5077 52.4682C86.5077 51.5449 86.7482 50.8043 87.2291 50.2464C87.71 49.6886 88.2775 49.4097 88.9315 49.4097C89.4893 49.4097 89.9318 49.6405 90.2588 50.1022C90.5858 50.5446 90.7493 51.1986 90.7493 52.0643C90.7493 52.699 90.6627 53.3531 90.4896 54.0263C90.3165 54.6996 90.0664 55.3536 89.7394 55.9884C89.8548 56.0077 89.9702 56.0269 90.0856 56.0461C90.2203 56.0654 90.355 56.075 90.4896 56.075C91.1821 56.075 91.7592 55.9115 92.2209 55.5845C92.6825 55.2382 93.0673 54.8246 93.375 54.3437C93.702 53.8436 93.9713 53.3723 94.1829 52.9299L94.5292 53.305C93.9906 54.6323 93.3462 55.5171 92.596 55.9596C91.865 56.3828 91.134 56.5944 90.403 56.5944C90.2492 56.5944 90.0953 56.5847 89.9414 56.5655C89.7875 56.5463 89.6336 56.527 89.4797 56.5078C88.9603 57.3927 88.3159 58.1429 87.5465 58.7584C86.7963 59.3932 85.9114 59.7106 84.8919 59.7106ZM88.9026 55.6133C89.1142 55.1709 89.2777 54.7092 89.3931 54.2283C89.5086 53.7282 89.5663 53.2184 89.5663 52.699C89.5663 52.0258 89.4701 51.4968 89.2777 51.1121C89.1046 50.7273 88.8834 50.535 88.6141 50.535C88.3256 50.535 88.0659 50.737 87.835 51.1409C87.6234 51.5256 87.5176 52.0162 87.5176 52.6125C87.5176 53.1319 87.6234 53.6801 87.835 54.2572C88.0466 54.8343 88.4025 55.2863 88.9026 55.6133ZM85.5555 48.6883C86.0942 48.2651 86.6135 47.7265 87.1137 47.0725C87.633 46.4185 88.1139 45.726 88.5564 44.995C88.9988 44.2448 89.3932 43.5138 89.7394 42.8021C90.0857 42.0903 90.355 41.4459 90.5473 40.8688C90.7397 40.2918 90.8359 39.8589 90.8359 39.5704C90.8359 39.4742 90.8262 39.4165 90.807 39.3973C90.7878 39.3588 90.7589 39.3396 90.7204 39.3396C90.5666 39.3396 90.2684 39.6185 89.826 40.1763C89.4028 40.715 88.9219 41.4459 88.3833 42.3693C87.8639 43.2734 87.3445 44.2832 86.8251 45.3989C86.3058 46.4954 85.8826 47.5919 85.5555 48.6883Z" fill="#A9804B"/>
<path d="M73.6603 58.5271C72.8332 58.5271 72.2465 58.2674 71.9002 57.748C71.554 57.2479 71.3809 56.6323 71.3809 55.9014C71.3809 55.305 71.477 54.6895 71.6694 54.0547C71.8618 53.4199 72.1118 52.8236 72.4196 52.2657C72.7466 51.7079 73.1025 51.2558 73.4872 50.9096C73.8912 50.5633 74.2951 50.3902 74.6991 50.3902C74.7953 50.3902 74.8914 50.4094 74.9876 50.4479C75.103 50.4672 75.2088 50.496 75.305 50.5345C75.1319 50.6884 74.9203 50.9769 74.6702 51.4001C74.4394 51.8041 74.2182 52.2753 74.0066 52.814C73.795 53.3333 73.6122 53.8527 73.4584 54.3721C73.3237 54.8915 73.2564 55.3339 73.2564 55.6994C73.2564 56.2765 73.3526 56.6997 73.5449 56.969C73.7373 57.219 73.9874 57.3441 74.2951 57.3441C74.6991 57.3441 75.18 57.1325 75.7378 56.7093C76.2957 56.2668 76.8439 55.709 77.3825 55.0357C76.8439 54.5933 76.4207 54.0162 76.1129 53.3045C75.8244 52.5735 75.6801 51.8329 75.6801 51.0827C75.6801 50.4479 75.7859 49.8516 75.9975 49.2937C76.2284 48.7359 76.5554 48.2935 76.9786 47.9665C77.4018 47.6202 77.9115 47.4471 78.5078 47.4471C79.2965 47.4471 79.8255 47.6587 80.0948 48.0819C80.3641 48.5051 80.4988 49.0341 80.4988 49.6689C80.4988 50.4191 80.316 51.2558 79.9506 52.1792C79.5851 53.0833 79.1234 53.9585 78.5655 54.8049C78.9118 54.9973 79.2773 55.0934 79.662 55.0934C79.9698 55.0934 80.316 55.0357 80.7008 54.9203C81.0855 54.7857 81.4606 54.5644 81.8261 54.2567C82.2108 53.9489 82.5186 53.5353 82.7494 53.0159L83.0957 53.3045C82.7109 54.2086 82.1627 54.853 81.451 55.2377C80.7585 55.6032 80.0948 55.7859 79.46 55.7859C79.21 55.7859 78.9695 55.7667 78.7387 55.7282C78.5078 55.6705 78.2866 55.5936 78.075 55.4974C77.421 56.363 76.6996 57.0844 75.911 57.6615C75.1415 58.2385 74.3913 58.5271 73.6603 58.5271ZM77.9019 54.2855C78.3828 53.5738 78.7771 52.8332 79.0849 52.0638C79.4119 51.2751 79.5754 50.5345 79.5754 49.842C79.5754 49.2841 79.4889 48.8802 79.3158 48.6301C79.1619 48.3608 78.9599 48.2261 78.7098 48.2261C78.3251 48.2261 77.9308 48.5051 77.5268 49.0629C77.1228 49.6208 76.9209 50.3229 76.9209 51.1693C76.9209 51.7271 76.9978 52.2946 77.1517 52.8717C77.3248 53.4295 77.5749 53.9008 77.9019 54.2855Z" fill="#A9804B"/>
<path d="M66.6304 58.3539C65.9764 58.3539 65.457 58.1807 65.0723 57.8345C64.7068 57.4882 64.524 57.0362 64.524 56.4783C64.524 55.9013 64.6587 55.2953 64.928 54.6605C65.1973 54.0257 65.457 53.4006 65.7071 52.785C65.9764 52.1502 66.111 51.5828 66.111 51.0826C66.111 50.4671 65.9283 50.015 65.5628 49.7265C65.2165 49.4187 64.8607 49.1398 64.4952 48.8897C64.0528 50.0246 63.5911 51.1019 63.1102 52.1214C62.6293 53.1409 62.2349 53.9103 61.9272 54.4297L61.6675 53.9392C61.9368 53.439 62.283 52.7081 62.7062 51.7463C63.1487 50.7845 63.5815 49.688 64.0047 48.4569C63.8123 48.2645 63.7161 48.0337 63.7161 47.7644C63.7161 47.1873 63.8796 46.716 64.2066 46.3505C64.5337 45.9851 64.7741 45.8023 64.928 45.8023C65.1396 45.8023 65.255 45.8985 65.2743 46.0908C65.3127 46.264 65.332 46.3986 65.332 46.4948C65.332 46.591 65.2742 46.7833 65.1588 47.0719C65.0627 47.3412 65.0146 47.5047 65.0146 47.5624C65.0146 47.8317 65.1588 48.0818 65.4474 48.3126C65.7552 48.5242 66.1014 48.7743 66.4861 49.0628C66.8708 49.3321 67.2075 49.6688 67.496 50.0727C67.8038 50.4574 67.9577 50.9576 67.9577 51.5731C67.9577 52.1502 67.8327 52.7369 67.5826 53.3332C67.3518 53.9296 67.1113 54.497 66.8612 55.0356C66.6304 55.5743 66.515 56.0455 66.515 56.4495C66.515 56.7957 66.6015 57.0266 66.7747 57.142C66.9478 57.2574 67.1498 57.3151 67.3806 57.3151C67.8423 57.3151 68.3136 57.1708 68.7945 56.8823C69.2946 56.5938 69.7755 56.2283 70.2372 55.7858C70.6988 55.3434 71.1124 54.8818 71.4779 54.4009C71.8434 53.9007 72.1127 53.439 72.2858 53.0158L72.6609 53.3044C72.2954 54.1123 71.7953 54.9106 71.1605 55.6993C70.5257 56.4687 69.814 57.1035 69.0253 57.6037C68.2558 58.1038 67.4575 58.3539 66.6304 58.3539Z" fill="#A9804B"/>
<path d="M49.7029 58.4692C49.3759 58.4692 49.0392 58.3827 48.693 58.2096C48.366 58.0557 48.0967 57.796 47.8851 57.4305C47.6542 57.065 47.5388 56.6033 47.5388 56.0455C47.5388 55.4107 47.6927 54.699 48.0005 53.9103C48.3083 53.1216 48.7218 52.3425 49.2412 51.5731C49.7606 50.7844 50.3569 50.0631 51.0302 49.409C51.7034 48.7358 52.4056 48.2068 53.1365 47.8221C53.8675 47.4181 54.5889 47.2161 55.3006 47.2161C55.7046 47.2161 56.0123 47.2931 56.2239 47.4469C56.4548 47.5816 56.5702 47.8028 56.5702 48.1106C56.5702 48.1875 56.5606 48.2549 56.5413 48.3126C56.5413 48.3703 56.5317 48.4376 56.5125 48.5146C56.4163 48.3607 56.272 48.2549 56.0797 48.1972C55.9065 48.1202 55.6853 48.0817 55.416 48.0817C54.8005 48.0817 54.1945 48.2741 53.5982 48.6588C53.0211 49.0243 52.4825 49.5148 51.9824 50.1304C51.5015 50.7267 51.0783 51.3711 50.7128 52.0636C50.3473 52.7561 50.0587 53.4294 49.8472 54.0834C49.6548 54.7182 49.5586 55.2568 49.5586 55.6992C49.5586 56.1224 49.6548 56.4591 49.8472 56.7091C50.0395 56.9592 50.2896 57.0842 50.5974 57.0842C51.1167 57.0842 51.7419 56.7572 52.4729 56.1032C53.2231 55.4492 53.9829 54.5258 54.7524 53.3332C55.5218 52.1406 56.2143 50.7459 56.8299 49.1493C57.2531 48.0336 57.6859 46.8987 58.1283 45.7446C58.59 44.5904 59.0516 43.4843 59.5133 42.4263C59.975 41.3491 60.4174 40.3969 60.8406 39.5698C61.283 38.7234 61.6966 38.0597 62.0813 37.5788C62.4853 37.0787 62.8411 36.8286 63.1489 36.8286C63.3028 36.8286 63.4375 36.8959 63.5529 37.0306C63.6683 37.146 63.726 37.2999 63.726 37.4923C63.726 37.8 63.5625 38.329 63.2355 39.0792C62.9277 39.8102 62.5141 40.6951 61.9948 41.7338C61.4946 42.7533 60.9656 43.869 60.4078 45.0809C59.8499 46.2928 59.3113 47.5239 58.7919 48.7742C58.2918 50.0246 57.8782 51.2365 57.5512 52.4099C57.2434 53.564 57.0896 54.622 57.0896 55.5838C57.0896 56.1224 57.1184 56.5264 57.1761 56.7957C57.2338 57.065 57.4262 57.1997 57.7532 57.1997C58.1572 57.1997 58.6284 57.0265 59.167 56.6803C59.7057 56.334 60.2443 55.8435 60.7829 55.2087C61.3215 54.5739 61.7928 53.8141 62.1967 52.9292L62.543 53.1889C62.1775 54.17 61.6774 55.0548 61.0426 55.8435C60.4078 56.613 59.7249 57.2189 58.9939 57.6613C58.2822 58.123 57.5993 58.3538 56.9453 58.3538C56.2335 58.3538 55.7334 58.1134 55.4449 57.6325C55.1756 57.1708 55.0409 56.6899 55.0409 56.1898C55.0409 55.8627 55.089 55.4299 55.1852 54.8913C55.2814 54.3527 55.416 53.7564 55.5891 53.1024C54.9736 54.1219 54.3195 55.0452 53.627 55.8724C52.9345 56.6803 52.2517 57.3151 51.5784 57.7767C50.9244 58.2384 50.2992 58.4692 49.7029 58.4692Z" fill="#A9804B"/>
<path d="M42.961 58.3539C42.3069 58.3539 41.7876 58.1807 41.4028 57.8345C41.0373 57.4882 40.8546 57.0362 40.8546 56.4783C40.8546 55.9013 40.9893 55.2953 41.2586 54.6605C41.5279 54.0257 41.7876 53.4006 42.0376 52.785C42.3069 52.1502 42.4416 51.5828 42.4416 51.0826C42.4416 50.4671 42.2588 50.015 41.8934 49.7265C41.5471 49.4187 41.1912 49.1398 40.8258 48.8897C40.3833 50.0246 39.9217 51.1019 39.4408 52.1214C38.9599 53.1409 38.5655 53.9103 38.2577 54.4297L37.998 53.9392C38.2674 53.439 38.6136 52.7081 39.0368 51.7463C39.4792 50.7845 39.912 49.688 40.3352 48.4569C40.1429 48.2645 40.0467 48.0337 40.0467 47.7644C40.0467 47.1873 40.2102 46.716 40.5372 46.3505C40.8642 45.9851 41.1047 45.8023 41.2586 45.8023C41.4702 45.8023 41.5856 45.8985 41.6048 46.0908C41.6433 46.264 41.6625 46.3986 41.6625 46.4948C41.6625 46.591 41.6048 46.7833 41.4894 47.0719C41.3932 47.3412 41.3451 47.5047 41.3451 47.5624C41.3451 47.8317 41.4894 48.0818 41.7779 48.3126C42.0857 48.5242 42.432 48.7743 42.8167 49.0628C43.2014 49.3321 43.538 49.6688 43.8266 50.0727C44.1344 50.4574 44.2883 50.9576 44.2883 51.5731C44.2883 52.1502 44.1632 52.7369 43.9132 53.3332C43.6823 53.9296 43.4419 54.497 43.1918 55.0356C42.961 55.5743 42.8455 56.0455 42.8455 56.4495C42.8455 56.7957 42.9321 57.0266 43.1052 57.142C43.2784 57.2574 43.4803 57.3151 43.7112 57.3151C44.1728 57.3151 44.6441 57.1708 45.125 56.8823C45.6252 56.5938 46.1061 56.2283 46.5677 55.7858C47.0294 55.3434 47.443 54.8818 47.8085 54.4009C48.1739 53.9007 48.4433 53.439 48.6164 53.0158L48.9915 53.3044C48.626 54.1123 48.1259 54.9106 47.4911 55.6993C46.8563 56.4687 46.1445 57.1035 45.3559 57.6037C44.5864 58.1038 43.7881 58.3539 42.961 58.3539Z" fill="#A9804B"/>
<path d="M26.7866 58.9599C26.1903 58.9599 25.6901 58.7579 25.2862 58.3539C24.863 57.9692 24.6514 57.3729 24.6514 56.565C24.6514 55.8725 24.8053 55.1319 25.113 54.3432C25.4208 53.5353 25.844 52.7466 26.3826 51.9771C26.9212 51.1885 27.5272 50.4767 28.2004 49.8419C28.8929 49.1879 29.6143 48.6685 30.3645 48.2838C31.1339 47.8991 31.8938 47.7067 32.644 47.7067C33.3942 47.7067 34.0194 47.9087 34.5195 48.3127C35.0196 48.6974 35.2697 49.2168 35.2697 49.8708C35.2697 50.3517 35.135 50.6787 34.8657 50.8518C34.6157 51.025 34.279 51.1115 33.8558 51.1115C33.8943 50.9576 33.9232 50.7941 33.9424 50.621C33.9809 50.4286 34.0001 50.2555 34.0001 50.1016C34.0001 49.6592 33.8943 49.2841 33.6827 48.9763C33.4711 48.6493 33.1056 48.4858 32.5863 48.4858C32.0477 48.4858 31.4994 48.6782 30.9416 49.0629C30.3837 49.4284 29.8451 49.9285 29.3257 50.5633C28.8064 51.1788 28.3447 51.8521 27.9407 52.5831C27.5368 53.3141 27.2194 54.0354 26.9886 54.7471C26.7577 55.4589 26.6423 56.0937 26.6423 56.6515C26.6423 57.4017 26.902 57.7768 27.4214 57.7768C27.8638 57.7768 28.3447 57.5749 28.8641 57.1709C29.3835 56.7477 29.9124 56.2187 30.4511 55.5839C31.0089 54.9299 31.5379 54.2566 32.038 53.5641C32.5382 52.8716 32.9806 52.2368 33.3653 51.6597C33.4423 51.5443 33.4904 51.4866 33.5096 51.4866C33.625 51.5059 33.7693 51.5443 33.9424 51.602C34.1348 51.6597 34.2983 51.7367 34.4329 51.8329C34.5676 51.9291 34.6349 52.0541 34.6349 52.208C34.6349 52.3811 34.5483 52.6216 34.3752 52.9293C34.2021 53.2179 34.0097 53.5545 33.7981 53.9392C33.5865 54.324 33.3942 54.7183 33.2211 55.1222C33.0479 55.507 32.9614 55.8725 32.9614 56.2187C32.9614 56.5072 33.0383 56.7958 33.1922 57.0843C33.3461 57.3536 33.5962 57.4883 33.9424 57.4883C34.4618 57.4883 35.1447 57.1132 35.9911 56.363C36.8374 55.5935 37.6935 54.449 38.5591 52.9293L38.8476 53.2179C38.4437 54.2566 37.9243 55.1703 37.2895 55.959C36.6547 56.7477 35.9718 57.3633 35.2408 57.8057C34.5291 58.2481 33.827 58.4693 33.1345 58.4693C32.4228 58.4693 31.8938 58.2577 31.5475 57.8345C31.2205 57.4113 31.057 56.9497 31.057 56.4495C31.057 56.3341 31.0666 56.2091 31.0858 56.0744C31.1051 55.9205 31.1243 55.7667 31.1436 55.6128C30.3164 56.7285 29.5566 57.5652 28.8641 58.1231C28.1908 58.6809 27.4983 58.9599 26.7866 58.9599Z" fill="#A9804B"/>
<path d="M6.18494 60.1139C5.97335 60.1139 5.72328 60.0755 5.43474 59.9985C5.16543 59.9408 4.89613 59.8254 4.62682 59.6523C4.35751 59.4984 4.1363 59.2675 3.96317 58.9598C3.79005 58.6712 3.70349 58.2865 3.70349 57.8056C3.70349 57.1323 3.86699 56.2475 4.19401 55.151C4.52102 54.0353 4.89613 52.8042 5.31932 51.4577C5.64633 50.4189 5.96373 49.3417 6.27151 48.226C6.57929 47.1103 6.82936 45.9946 7.02172 44.8789C7.23331 43.7632 7.33911 42.6956 7.33911 41.6761C7.33911 40.9644 7.31026 40.3007 7.25255 39.6852C7.21408 39.0696 7.06981 38.5791 6.81974 38.2136C6.5889 37.8289 6.18495 37.6365 5.60786 37.6365C5.06925 37.6365 4.60758 37.8 4.22286 38.1271C3.85738 38.4348 3.5496 38.8388 3.29953 39.3389C3.0687 39.8391 2.89557 40.3681 2.78015 40.9259C2.68397 41.4838 2.63588 42.0031 2.63588 42.484C2.63588 43.1188 2.72244 43.6382 2.89557 44.0422C2.14536 44.0422 1.61637 43.8402 1.30859 43.4362C1.00081 43.013 0.846924 42.5225 0.846924 41.9647C0.846924 41.3683 0.981577 40.772 1.25088 40.1757C1.53942 39.5794 1.92415 39.0311 2.40505 38.531C2.90519 38.0116 3.47265 37.5981 4.10745 37.2903C4.74224 36.9825 5.4155 36.8286 6.12724 36.8286C7.31988 36.8286 8.20474 37.2999 8.78182 38.2425C9.37814 39.1658 9.6763 40.4065 9.6763 41.9647C9.6763 43.3689 9.47432 44.8597 9.07036 46.4371C8.68564 47.9952 8.25283 49.5148 7.77192 50.996C7.46415 51.9578 7.16599 52.8811 6.87745 53.766C6.60814 54.6316 6.38692 55.4299 6.2138 56.1609C6.04067 56.8919 5.95411 57.5363 5.95411 58.0941C5.95411 58.4596 6.01182 58.7385 6.12724 58.9309C6.24265 59.1233 6.47349 59.2194 6.81974 59.2194C7.30064 59.2194 7.82963 58.9886 8.40672 58.5269C9.00304 58.0845 9.59936 57.4786 10.1957 56.7091C10.8112 55.9397 11.3979 55.0933 11.9558 54.17C12.5329 53.2274 13.0522 52.2656 13.5139 51.2846C13.9948 50.3035 14.3891 49.3706 14.6969 48.4857C15.0239 47.6008 15.2259 46.841 15.3029 46.2062C15.9377 46.2062 16.3801 46.3697 16.6302 46.6967C16.8995 47.0238 17.0341 47.3315 17.0341 47.6201C17.0341 47.9278 16.9091 48.3991 16.659 49.0339C16.4089 49.6687 16.1108 50.3805 15.7645 51.1691C15.476 51.8616 15.1778 52.6022 14.87 53.3909C14.5815 54.1796 14.3314 54.9683 14.1198 55.7569C13.9275 56.5456 13.8313 57.2958 13.8313 58.0076C13.8313 58.3731 13.8794 58.6616 13.9756 58.8732C14.0718 59.104 14.293 59.2194 14.6392 59.2194C15.1778 59.2194 15.803 58.9405 16.5147 58.3827C17.2265 57.8441 17.9574 57.1035 18.7077 56.1609C19.4771 55.1991 20.2177 54.1219 20.9294 52.9292C21.6604 51.7366 22.6504 49.6192 23.2275 48.3304C23.8242 46.9977 27.2094 46.551 27.5556 45.3007C27.9019 44.0503 30.1525 43.9061 30.1525 42.8481C30.1525 41.8863 31.8838 42.4071 31.5952 41.9647C31.3067 41.503 32.5089 41.8108 32.028 41.6761C32.2973 41.2144 33.615 40.3873 33.9035 40.1757C34.2113 39.9641 34.8076 39.6852 35.0577 39.6852C35.4617 39.6852 33.086 40.4065 33.4707 40.9259C33.8555 41.4453 32.7494 40.5797 32.7494 41.6761C32.7494 42.7341 29.258 43.5324 28.8541 44.8789C28.4693 46.2255 25.9361 47.2397 24.9588 48.4857C23.9489 49.7731 23.0069 51.4481 22.1413 52.8138C21.2757 54.1796 20.3716 55.4107 19.429 56.5072C18.4864 57.6036 17.5535 58.4789 16.6302 59.1329C15.7068 59.7869 14.8508 60.1139 14.0621 60.1139C13.6966 60.1139 13.3215 60.037 12.9368 59.8831C12.5521 59.7292 12.2251 59.4888 11.9558 59.1617C11.7057 58.854 11.5807 58.45 11.5807 57.9499C11.5807 57.6613 11.6288 57.2958 11.7249 56.8534C11.8404 56.3917 11.9846 55.8916 12.1578 55.353C11.1767 56.738 10.1668 57.8729 9.12807 58.7578C8.10856 59.6619 7.12751 60.1139 6.18494 60.1139Z" fill="#A9804B"/>
</svg>
